Coordinates
version=1
nRows=20
nColumns=30
inDegrees=yes

Units are S.I. units (second, meters, Newtons, ...)
Angles are in degrees.

endheader
time	floatyaw	floatroll	floatpitch	floatx	floaty	floatz	pro_sup_l	deviation_l	flexion_l	cmc_flexion_l	cmc_abduction_l	mp_flexion_l	ip_flexion_l	2mcp_flexion_l	2mcp_abduction_l	2pm_flexion_l	2md_flexion_l	3mcp_flexion_l	3mcp_abduction_l	3pm_flexion_l	3md_flexion_l	4mcp_flexion_l	4mcp_abduction_l	4pm_flexion_l	4md_flexion_l	5mcp_flexion_l	5mcp_abduction_l	5pm_flexion_l	5md_flexion_l
0.005000	-0.679314	-3.115271	87.889519	0.157984	-0.228673	0.165617	110.856113	18.347292	16.998826	2.373665	39.101859	-15.273485	-26.202137	36.272970	9.107693	43.518846	38.568680	30.970642	5.638010	46.208556	45.019764	30.870505	-4.792966	66.153491	48.176408	23.427954	-10.074574	56.094468	40.890864
0.015000	-0.679314	-3.115271	87.889519	0.157073	-0.227930	0.164503	109.998043	17.870609	16.629318	3.465274	39.448637	-15.649185	-28.835087	36.058548	9.014100	43.677902	39.863882	30.405410	5.562066	46.784321	46.304506	30.127752	-4.903489	67.011573	49.442116	23.086982	-10.056263	56.147987	41.455784
0.025000	-0.679314	-3.115271	87.889519	0.156101	-0.227214	0.163341	109.167939	17.436675	16.212775	4.532505	39.843765	-15.920414	-31.588229	35.748737	8.914672	43.923072	41.108128	29.788862	5.495558	47.398798	47.538150	29.399790	-5.000040	67.825955	50.608427	22.749800	-10.025545	56.214652	41.988513
0.035000	-0.679314	-3.115271	87.889519	0.155091	-0.226585	0.162167	108.398871	17.055297	15.771810	5.470984	40.240074	-16.070568	-34.241212	35.401715	8.818872	44.201895	42.229277	29.193183	5.439969	47.970156	48.662270	28.744057	-5.079824	68.551621	51.630477	22.465168	-9.985923	56.290464	42.442580
0.045000	-0.679314	-3.115271	87.889519	0.154072	-0.226091	0.161028	107.726253	16.731545	15.340091	6.205971	40.597594	-16.097816	-36.579835	35.068649	8.736528	44.460547	43.181605	28.679589	5.397820	48.424315	49.634940	28.197409	-5.142244	69.150838	52.488591	22.255480	-9.941810	56.371442	42.808837
0.055000	-0.679314	-3.115271	87.889519	0.153076	-0.225761	0.159979	107.182577	16.466762	14.952337	6.706863	40.890189	-16.015378	-38.452329	34.778065	8.676516	44.661825	43.958753	28.281167	5.372357	48.718602	50.437176	27.772706	-5.188667	69.601895	53.189086	22.116477	-9.898015	56.457129	43.109953
0.065000	-0.679314	-3.115271	87.889519	0.152136	-0.225598	0.159078	106.788324	16.259020	14.632395	6.988871	41.108633	-15.847876	-39.805537	34.535701	8.644127	44.791630	44.591577	27.999497	5.365554	48.853461	51.073605	27.462782	-5.221863	69.903493	53.758762	22.027929	-9.858852	56.548062	43.381492
0.075000	-0.679314	-3.115271	87.889519	0.151282	-0.225579	0.158370	106.544703	16.103919	14.384844	7.101954	41.259495	-15.626348	-40.685423	34.336556	8.638595	44.855945	45.127824	27.813253	5.375865	48.870726	51.563696	27.248356	-5.245204	70.075300	54.232974	21.966690	-9.826944	56.643517	43.650336
0.085000	-0.679314	-3.115271	87.889519	0.150538	-0.225664	0.157882	106.432829	15.996132	14.195395	7.111558	41.360478	-15.383655	-41.204051	34.177966	8.652758	44.874083	45.602987	27.692064	5.397489	48.838967	51.927421	27.106074	-5.261825	70.153953	54.640286	21.915176	-9.802508	56.742537	43.920588
0.095000	-0.679314	-3.115271	87.889519	0.149925	-0.225801	0.157612	106.419337	15.930669	14.040727	7.078398	41.433622	-15.150142	-41.491387	34.064337	8.675489	44.872273	46.020259	27.608546	5.421850	48.829735	52.175684	27.014225	-5.273926	70.184193	54.990927	21.864278	-9.784025	56.845936	44.171836
0.105000	-0.679314	-3.115271	87.889519	0.149460	-0.225944	0.157527	106.464869	15.902661	13.901943	7.044316	41.498188	-14.949063	-41.655074	34.002311	8.695667	44.877655	46.353545	27.544366	5.440639	48.893244	52.312916	26.955591	-5.282350	70.207133	55.276238	21.812854	-9.770045	56.956682	44.369154
0.115000	-0.679314	-3.115271	87.889519	0.149154	-0.226059	0.157571	106.531975	15.905754	13.773236	7.028128	41.565145	-14.792853	-41.762977	33.992180	8.705672	44.910982	46.572020	27.490038	5.448807	49.043715	52.348455	26.917692	-5.286596	70.249665	55.480264	21.764516	-9.760596	57.078748	44.480302
0.125000	-0.679314	-3.115271	87.889519	0.148998	-0.226137	0.157675	106.590960	15.930338	13.661048	7.030482	41.634796	-14.682483	-41.848214	34.022704	8.702741	44.978579	46.668749	27.441181	5.445927	49.259742	52.305667	26.890705	-5.285432	70.318756	55.596631	21.721666	-9.756659	57.214450	44.492511
0.135000	-0.679314	-3.115271	87.889519	0.148961	-0.226184	0.157781	106.623470	15.963114	13.575740	7.042917	41.698251	-14.610791	-41.924532	34.072866	8.687934	45.067801	46.672825	27.395067	5.435281	49.496623	52.220943	26.864385	-5.277968	70.402249	55.639905	21.679848	-9.757935	57.358808	44.420678
0.145000	-0.679314	-3.115271	87.889519	0.148990	-0.226217	0.157854	106.623428	15.988831	13.522349	7.055781	41.742618	-14.567848	-41.998731	34.119302	8.663980	45.150688	46.637272	27.349953	5.421394	49.703005	52.134328	26.826831	-5.264689	70.475551	55.644332	21.627853	-9.760973	57.492331	44.302863
0.155000	-0.679314	-3.115271	87.889519	0.149025	-0.226255	0.157887	106.595068	15.993952	13.496411	7.062370	41.758524	-14.545010	-42.074662	34.145216	8.633776	45.196060	46.612677	27.306644	5.407640	49.836038	52.078831	26.767340	-5.247855	70.512025	55.650999	21.555314	-9.759729	57.579154	44.185815
0.165000	-0.679314	-3.115271	87.889519	0.149018	-0.226307	0.157896	106.548668	15.970851	13.486442	7.059500	41.746513	-14.535721	-42.151575	34.146085	8.600273	45.184533	46.624636	27.269519	5.395231	49.873044	52.073145	26.682067	-5.230944	70.493859	55.691088	21.462513	-9.748577	57.577098	44.108009
0.175000	-0.679314	-3.115271	87.889519	0.148950	-0.226372	0.157902	106.495742	15.920562	13.480109	7.046144	41.718027	-14.534091	-42.222146	34.129019	8.566989	45.118554	46.667501	27.244684	5.383811	49.818124	52.118347	26.577921	-5.217344	70.419505	55.774051	21.364312	-9.725565	57.457111	44.087729
0.185000	-0.679314	-3.115271	87.889519	0.148834	-0.226440	0.157921	106.445614	15.852555	13.469649	7.021987	41.689421	-14.533932	-42.273614	34.106080	8.537925	45.022210	46.715069	27.235775	5.372840	49.700624	52.198801	26.470640	-5.208957	70.304511	55.886233	21.284310	-9.693365	57.220348	44.120641
0.195000	-0.679314	-3.115271	87.889519	0.148701	-0.226497	0.157956	106.404181	15.781291	13.453709	6.987253	41.672816	-14.529642	-42.293086	34.086125	8.516503	44.930442	46.740235	27.240726	5.362664	49.563430	52.288985	26.377581	-5.205506	70.175031	56.000275	21.242785	-9.657297	56.901315	44.187253
